<svg width="16" height="16" viewBox="0 0 16 16" fill="none" xmlns="http://www.w3.org/2000/svg">
<g clip-path="url(#clip0_370_1671)">
<path opacity="0.3" d="M6.06634 3.33325L3.33301 6.06659V9.93325L6.06634 12.6666H9.93301L12.6663 9.93325V6.06659L9.93301 3.33325H6.06634ZM7.99967 11.3333C7.63301 11.3333 7.33301 11.0333 7.33301 10.6666C7.33301 10.2999 7.63301 9.99992 7.99967 9.99992C8.36634 9.99992 8.66634 10.2999 8.66634 10.6666C8.66634 11.0333 8.36634 11.3333 7.99967 11.3333ZM8.66634 9.33325H7.33301V4.66659H8.66634V9.33325Z" fill="#FDB813"/>
<path d="M10.4867 2H5.51333L2 5.51333V10.4867L5.51333 14H10.4867L14 10.4867V5.51333L10.4867 2ZM12.6667 9.93333L9.93333 12.6667H6.06667L3.33333 9.93333V6.06667L6.06667 3.33333H9.93333L12.6667 6.06667V9.93333V9.93333Z" fill="#FDB813"/>
<path d="M7.99967 11.3333C8.36786 11.3333 8.66634 11.0349 8.66634 10.6667C8.66634 10.2985 8.36786 10 7.99967 10C7.63148 10 7.33301 10.2985 7.33301 10.6667C7.33301 11.0349 7.63148 11.3333 7.99967 11.3333Z" fill="#FDB813"/>
<path d="M7.33301 4.66675H8.66634V9.33341H7.33301V4.66675Z" fill="#FDB813"/>
</g>
<defs>
<clipPath id="clip0_370_1671">
<rect width="16" height="16" fill="white"/>
</clipPath>
</defs>
</svg>
