<svg width="16" height="16" viewBox="0 0 16 16" fill="none" xmlns="http://www.w3.org/2000/svg">
<g clip-path="url(#clip0_373_1761)">
<path d="M4.66679 4.00008H11.3335L7.99345 8.20008L4.66679 4.00008ZM2.83345 3.74008C4.18012 5.46675 6.66679 8.66675 6.66679 8.66675V12.6667C6.66679 13.0334 6.96679 13.3334 7.33345 13.3334H8.66679C9.03345 13.3334 9.33345 13.0334 9.33345 12.6667V8.66675C9.33345 8.66675 11.8135 5.46675 13.1601 3.74008C13.5001 3.30008 13.1868 2.66675 12.6335 2.66675H3.36012C2.80679 2.66675 2.49345 3.30008 2.83345 3.74008Z" fill="#565656"/>
<path opacity="0.3" d="M4.66699 4H11.3337L7.99366 8.2L4.66699 4Z" fill="#565656"/>
</g>
<rect x="0.5" y="0.5" width="15" height="15" stroke="#E7E7E7"/>
<defs>
<clipPath id="clip0_373_1761">
<rect width="16" height="16" fill="white"/>
</clipPath>
</defs>
</svg>
