<svg width="13" height="12" viewBox="0 0 13 12" fill="none" xmlns="http://www.w3.org/2000/svg">
<g clip-path="url(#clip0_1004_2511)">
<path opacity="0.3" d="M8.19336 4.75C8.19336 3.235 6.95836 2 5.44336 2C3.92836 2 2.69336 3.235 2.69336 4.75C2.69336 5.985 3.43836 6.695 3.86836 7H7.01836C7.44836 6.695 8.19336 5.985 8.19336 4.75Z" fill="white"/>
<path d="M4.44336 10H6.44336C6.44336 10.55 5.99336 11 5.44336 11C4.89336 11 4.44336 10.55 4.44336 10ZM3.44336 9.5H7.44336V8.5H3.44336V9.5ZM9.19336 4.75C9.19336 6.66 7.86336 7.68 7.30836 8H3.57836C3.02336 7.68 1.69336 6.66 1.69336 4.75C1.69336 2.68 3.37336 1 5.44336 1C7.51336 1 9.19336 2.68 9.19336 4.75ZM8.19336 4.75C8.19336 3.235 6.95836 2 5.44336 2C3.92836 2 2.69336 3.235 2.69336 4.75C2.69336 5.985 3.43836 6.695 3.86836 7H7.01836C7.44836 6.695 8.19336 5.985 8.19336 4.75ZM11.6284 3.685L10.9434 4L11.6284 4.315L11.9434 5L12.2584 4.315L12.9434 4L12.2584 3.685L11.9434 3L11.6284 3.685ZM10.4434 3L10.9134 1.97L11.9434 1.5L10.9134 1.03L10.4434 0L9.97336 1.03L8.94336 1.5L9.97336 1.97L10.4434 3Z" fill="white"/>
</g>
<defs>
<clipPath id="clip0_1004_2511">
<rect width="12" height="12" fill="white" transform="translate(0.943359)"/>
</clipPath>
</defs>
</svg>
