<svg width="12" height="12" viewBox="0 0 12 12" fill="none" xmlns="http://www.w3.org/2000/svg">
<g clip-path="url(#clip0_355_1819)">
<path d="M7.03 4.97L6 4.5L7.03 4.03L7.5 3L7.97 4.03L9 4.5L7.97 4.97L7.5 6L7.03 4.97ZM2 7L2.47 5.97L3.5 5.5L2.47 5.03L2 4L1.53 5.03L0.5 5.5L1.53 5.97L2 7ZM4.25 4.5L4.795 3.295L6 2.75L4.795 2.205L4.25 1L3.705 2.205L2.5 2.75L3.705 3.295L4.25 4.5ZM2.25 10.25L5.25 7.245L7.25 9.245L11.5 4.465L10.795 3.76L7.25 7.745L5.25 5.745L1.5 9.5L2.25 10.25Z" fill="white"/>
</g>
<defs>
<clipPath id="clip0_355_1819">
<rect width="12" height="12" fill="white"/>
</clipPath>
</defs>
</svg>
